<?xml version="1.0" encoding="utf-8"?>
<!-- Generator: Adobe Illustrator 16.0.0, SVG Export Plug-In . SVG Version: 6.00 Build 0)  -->
<!DOCTYPE svg PUBLIC "-//W3C//DTD SVG 1.1//EN" "http://www.w3.org/Graphics/SVG/1.1/DTD/svg11.dtd">
<svg version="1.1" id="Layer_1" xmlns="http://www.w3.org/2000/svg" xmlns:xlink="http://www.w3.org/1999/xlink" x="0px" y="0px"
	 width="480px" height="800px" viewBox="0 0 480 800" enable-background="new 0 0 480 800" xml:space="preserve">
<g>
	<path fill="#808080" d="M464.736,567.712L320.304,423.52c40.272-65.52,32.017-152.352-24.815-209.087
		C229.008,148,121.2,148,54.672,214.432c-66.48,66.384-66.48,174.048,0,240.48c50.544,55.536,143.664,61.728,208.176,25.008
		L407.76,624.592c20.928,20.928,36.912,7.152,50.017-5.952C470.88,605.584,485.664,588.64,464.736,567.712z M251.76,410.56
		c-42.672,42.576-111.84,42.576-154.464,0c-42.672-42.576-42.672-111.647,0-154.224s111.84-42.576,154.464,0
		C294.432,298.912,294.432,367.984,251.76,410.56z"/>
</g>
</svg>
